<svg width="150" height="150" viewBox="0 0 88 93" fill="none" xmlns="http://www.w3.org/2000/svg">
    <g filter="url(#filter0_df_3_8)">
        <path
            d="M83.9026 32.3984L79.301 30.3984L72.9026 40.7964H62.1016C61.8008 39.898 61.4024 38.9956 61 38.0972L69.3984 31.7964C70.0976 31.1948 70.6992 29.9956 70.5976 29.0972L68.996 4.0972H63.996V27.3982L57.3944 32.2966C56.2928 30.8982 55.1952 29.4958 53.8944 28.2966C54.8944 26.5974 55.5936 24.5974 55.5936 22.3982C55.5936 20.199 54.492 16.7966 52.6952 14.699C53.3944 10.3982 51.1952 5.8982 47.1952 4L45.6952 4.60156C46.5936 6.70316 46.996 8.90236 47.0936 11.1016C46.0936 10.8008 45.0936 10.6016 43.992 10.6016C42.8904 10.6016 41.8904 10.8008 40.8904 11.1016C40.8904 8.90236 41.3904 6.70316 42.2888 4.60156L40.7888 4C36.7888 5.8984 34.5896 10.3984 35.2888 14.699C33.488 16.8006 32.3904 19.3982 32.3904 22.3982C32.3904 25.3982 32.9919 26.5974 34.0896 28.2966C32.7888 29.5974 31.5896 30.8982 30.5896 32.2966L23.988 27.3982L24.0036 4.0972H19.0036L17.402 29.0972C17.402 29.9956 17.902 31.1988 18.6012 31.7964L26.9996 38.0972C26.6012 38.9956 26.1988 39.898 25.898 40.7964H15L8.6016 30.3984L4 32.3984L10 45.8984C10.3984 46.6992 11.3984 47.3984 12.3008 47.3984H24.1988C24.0972 48.5 23.898 49.5 23.898 50.6992L11.796 59.8008C11.0968 60.4024 10.4952 61.6016 10.5968 62.5L12.1984 84.199H17.1984V64.199L25.3 58.0974C25.6985 59.0974 26.1985 60.0974 26.8 61.0974L22.9992 66.199C22.3977 66.8982 22.1984 68.3006 22.3977 69.199L25.2961 80.898L30.1945 79.6988L29.296 68.9998L31.296 66.3006C34.796 69.199 39.1944 70.9022 43.995 70.9022C48.7956 70.9022 53.2958 69.203 56.694 66.3006L58.694 68.9998L57.7956 79.6988L62.694 80.898L65.5924 69.199C65.7916 68.3006 65.5924 66.9998 64.9908 66.199L61.19 61.0974C61.7916 60.0974 62.2916 59.0974 62.69 58.0974L70.7916 64.199V84.199H75.7916L77.3932 62.5C77.3932 61.6016 76.8932 60.3984 76.194 59.8008L64.092 50.6992C64.092 49.5976 63.9905 48.5 63.7912 47.3984H75.6892C76.5877 47.3984 77.6892 46.6992 77.99 45.8984L83.99 32.3984H83.9026Z"
            fill="url(#paint0_radial_3_8)" />
    </g>
    <g filter="url(#filter1_i_3_8)">
        <path
            d="M83.9026 32.3984L79.301 30.3984L72.9026 40.7964H62.1016C61.8008 39.898 61.4024 38.9956 61 38.0972L69.3984 31.7964C70.0976 31.1948 70.6992 29.9956 70.5976 29.0972L68.996 4.0972H63.996V27.3982L57.3944 32.2966C56.2928 30.8982 55.1952 29.4958 53.8944 28.2966C54.8944 26.5974 55.5936 24.5974 55.5936 22.3982C55.5936 20.199 54.492 16.7966 52.6952 14.699C53.3944 10.3982 51.1952 5.8982 47.1952 4L45.6952 4.60156C46.5936 6.70316 46.996 8.90236 47.0936 11.1016C46.0936 10.8008 45.0936 10.6016 43.992 10.6016C42.8904 10.6016 41.8904 10.8008 40.8904 11.1016C40.8904 8.90236 41.3904 6.70316 42.2888 4.60156L40.7888 4C36.7888 5.8984 34.5896 10.3984 35.2888 14.699C33.488 16.8006 32.3904 19.3982 32.3904 22.3982C32.3904 25.3982 32.9919 26.5974 34.0896 28.2966C32.7888 29.5974 31.5896 30.8982 30.5896 32.2966L23.988 27.3982L24.0036 4.0972H19.0036L17.402 29.0972C17.402 29.9956 17.902 31.1988 18.6012 31.7964L26.9996 38.0972C26.6012 38.9956 26.1988 39.898 25.898 40.7964H15L8.6016 30.3984L4 32.3984L10 45.8984C10.3984 46.6992 11.3984 47.3984 12.3008 47.3984H24.1988C24.0972 48.5 23.898 49.5 23.898 50.6992L11.796 59.8008C11.0968 60.4024 10.4952 61.6016 10.5968 62.5L12.1984 84.199H17.1984V64.199L25.3 58.0974C25.6985 59.0974 26.1985 60.0974 26.8 61.0974L22.9992 66.199C22.3977 66.8982 22.1984 68.3006 22.3977 69.199L25.2961 80.898L30.1945 79.6988L29.296 68.9998L31.296 66.3006C34.796 69.199 39.1944 70.9022 43.995 70.9022C48.7956 70.9022 53.2958 69.203 56.694 66.3006L58.694 68.9998L57.7956 79.6988L62.694 80.898L65.5924 69.199C65.7916 68.3006 65.5924 66.9998 64.9908 66.199L61.19 61.0974C61.7916 60.0974 62.2916 59.0974 62.69 58.0974L70.7916 64.199V84.199H75.7916L77.3932 62.5C77.3932 61.6016 76.8932 60.3984 76.194 59.8008L64.092 50.6992C64.092 49.5976 63.9905 48.5 63.7912 47.3984H75.6892C76.5877 47.3984 77.6892 46.6992 77.99 45.8984L83.99 32.3984H83.9026Z"
            fill="url(#paint1_radial_3_8)" />
    </g>
    <defs>
        <filter id="filter0_df_3_8" x="0" y="0" width="87.99" height="92.199" filterUnits="userSpaceOnUse"
            color-interpolation-filters="sRGB">
            <feFlood flood-opacity="0" result="BackgroundImageFix" />
            <feColorMatrix in="SourceAlpha" type="matrix" values="0 0 0 0 0 0 0 0 0 0 0 0 0 0 0 0 0 0 127 0"
                result="hardAlpha" />
            <feOffset dy="4" />
            <feGaussianBlur stdDeviation="2" />
            <feComposite in2="hardAlpha" operator="out" />
            <feColorMatrix type="matrix" values="0 0 0 0 0 0 0 0 0 0 0 0 0 0 0 0 0 0 0.25 0" />
            <feBlend mode="normal" in2="BackgroundImageFix" result="effect1_dropShadow_3_8" />
            <feBlend mode="normal" in="SourceGraphic" in2="effect1_dropShadow_3_8" result="shape" />
            <feGaussianBlur stdDeviation="2" result="effect2_foregroundBlur_3_8" />
        </filter>
        <filter id="filter1_i_3_8" x="4" y="4" width="79.99" height="84.199" filterUnits="userSpaceOnUse"
            color-interpolation-filters="sRGB">
            <feFlood flood-opacity="0" result="BackgroundImageFix" />
            <feBlend mode="normal" in="SourceGraphic" in2="BackgroundImageFix" result="shape" />
            <feColorMatrix in="SourceAlpha" type="matrix" values="0 0 0 0 0 0 0 0 0 0 0 0 0 0 0 0 0 0 127 0"
                result="hardAlpha" />
            <feOffset dy="4" />
            <feGaussianBlur stdDeviation="2" />
            <feComposite in2="hardAlpha" operator="arithmetic" k2="-1" k3="1" />
            <feColorMatrix type="matrix" values="0 0 0 0 0 0 0 0 0 0 0 0 0 0 0 0 0 0 0.25 0" />
            <feBlend mode="normal" in2="shape" result="effect1_innerShadow_3_8" />
        </filter>
        <radialGradient id="paint0_radial_3_8" cx="0" cy="0" r="1" gradientUnits="userSpaceOnUse"
            gradientTransform="translate(40.5 39) rotate(52.386) scale(77.0065 68.1519)">
            <stop stop-color="#E63E6D" />
            <stop offset="0.25" stop-color="#FF4C4C" />
            <stop offset="0.5" stop-color="#FF204E" />
            <stop offset="1" stop-color="#FF0000" />
        </radialGradient>
        <radialGradient id="paint1_radial_3_8" cx="0" cy="0" r="1" gradientUnits="userSpaceOnUse"
            gradientTransform="translate(40.5 39) rotate(52.386) scale(77.0065 68.1519)">
            <stop stop-color="#E63E6D" />
            <stop offset="0.25" stop-color="#FF4C4C" />
            <stop offset="0.5" stop-color="#FF204E" />
            <stop offset="1" stop-color="#FF0000" />
        </radialGradient>
    </defs>
</svg>