<svg width="28" height="32" viewBox="0 0 28 32" fill="none" xmlns="http://www.w3.org/2000/svg">
   <path fill-rule="evenodd" clip-rule="evenodd"
      d="M27.71 14.86V2.29C27.705 1.98639 27.6396 1.6868 27.5177 1.40868C27.3958 1.13057 27.2198 0.879468 27 0.67C26.5844 0.250017 26.0208 0.00950937 25.43 0H2.56999C1.97919 0.00950937 1.41561 0.250017 0.999987 0.67C0.787386 0.882792 0.618789 1.13538 0.503829 1.41335C0.388869 1.69131 0.329796 1.9892 0.329987 2.29V14.86H27.71Z"
      fill="#852221" />
   <path fill-rule="evenodd" clip-rule="evenodd"
      d="M0.290009 17.14V29.71C0.295037 30.0136 0.360398 30.3132 0.482289 30.5913C0.60418 30.8694 0.780167 31.1205 1.00001 31.33C1.41563 31.75 1.97921 31.9905 2.57001 32H25.43C26.0208 31.9905 26.5844 31.75 27 31.33C27.2126 31.1172 27.3812 30.8646 27.4962 30.5867C27.6111 30.3087 27.6702 30.0108 27.67 29.71V17.14H0.290009ZM10.57 25.14H9.43001V26.29C9.40333 26.5752 9.27116 26.8402 9.05938 27.0331C8.8476 27.226 8.57146 27.3329 8.28501 27.3329C7.99855 27.3329 7.72241 27.226 7.51063 27.0331C7.29886 26.8402 7.16669 26.5752 7.14001 26.29V25.14H6.00001C5.69766 25.14 5.4077 25.0199 5.19391 24.8061C4.98012 24.5923 4.86001 24.3023 4.86001 24C4.86001 23.6977 4.98012 23.4077 5.19391 23.1939C5.4077 22.9801 5.69766 22.86 6.00001 22.86H7.14001V21.71C7.16669 21.4248 7.29886 21.1598 7.51063 20.9669C7.72241 20.774 7.99855 20.6671 8.28501 20.6671C8.57146 20.6671 8.8476 20.774 9.05938 20.9669C9.27116 21.1598 9.40333 21.4248 9.43001 21.71V22.86H10.57C10.8724 22.86 11.1623 22.9801 11.3761 23.1939C11.5899 23.4077 11.71 23.6977 11.71 24C11.71 24.3023 11.5899 24.5923 11.3761 24.8061C11.1623 25.0199 10.8724 25.14 10.57 25.14ZM22.14 24.81C22.2457 24.9164 22.3294 25.0425 22.3864 25.1812C22.4434 25.32 22.4724 25.4686 22.472 25.6185C22.4715 25.7685 22.4415 25.9169 22.3837 26.0553C22.3259 26.1937 22.2414 26.3193 22.135 26.425C22.0286 26.5307 21.9025 26.6144 21.7638 26.6714C21.625 26.7284 21.4764 26.7574 21.3265 26.757C21.1765 26.7565 21.0281 26.7265 20.8897 26.6687C20.7514 26.6109 20.6257 26.5264 20.52 26.42L19.71 25.62L18.91 26.42C18.804 26.527 18.6778 26.612 18.5388 26.67C18.3998 26.728 18.2506 26.7578 18.1 26.7578C17.9494 26.7578 17.8002 26.728 17.6612 26.67C17.5222 26.612 17.396 26.527 17.29 26.42C17.1833 26.3149 17.0985 26.1895 17.0407 26.0513C16.9828 25.9131 16.953 25.7648 16.953 25.615C16.953 25.4652 16.9828 25.3169 17.0407 25.1787C17.0985 25.0405 17.1833 24.9151 17.29 24.81L18.1 24L17.29 23.19C17.1833 23.0849 17.0985 22.9595 17.0407 22.8213C16.9828 22.6831 16.953 22.5348 16.953 22.385C16.953 22.2352 16.9828 22.0869 17.0407 21.9487C17.0985 21.8105 17.1833 21.6851 17.29 21.58C17.396 21.473 17.5222 21.388 17.6612 21.33C17.8002 21.272 17.9494 21.2422 18.1 21.2422C18.2506 21.2422 18.3998 21.272 18.5388 21.33C18.6778 21.388 18.804 21.473 18.91 21.58L19.71 22.38L20.52 21.58C20.7335 21.3652 21.0236 21.244 21.3265 21.243C21.6293 21.2421 21.9202 21.3615 22.135 21.575C22.3498 21.7885 22.471 22.0786 22.472 22.3815C22.4729 22.6843 22.3535 22.9752 22.14 23.19L21.33 24L22.14 24.81Z"
      fill="#852221" />
</svg>